# xmcd
#
# Track frame offsets: 
#        150
#        38778
#        66650
#        84140
#        105063
#        129830
#        150893
#        178715
#        209738
#        231243
#        278433
#
# Disc length: 4018 seconds
#
# Revision: 2
# Processed by: cddbd v1.5.2PL0 Copyright (c) Steve Scherf et al.
# Submitted via: ExactAudioCopy v0.90b4
#
DISCID=830fb00b
DTITLE=The Spirit Level - Of Earth And Sky
DYEAR=1998
DGENRE=New Age
TTITLE0=Clear Light
TTITLE1=Movements In One
TTITLE2=Moksha
TTITLE3=Duang Jai Mae
TTITLE4=Peyote Road
TTITLE5=Point Of Passage
TTITLE6=Ghosts In The Night
TTITLE7=Flow
TTITLE8=Song Of Nepal
TTITLE9=Flowers For The Dead
TTITLE10=Of Earth And Sky
EXTD=YEAR: 1998
EXTT0=
EXTT1=
EXTT2=
EXTT3=
EXTT4=
EXTT5=
EXTT6=
EXTT7=
EXTT8=
EXTT9=
EXTT10=
PLAYORDER=
